<svg preserveAspectRatio="none" overflow="visible" style="display: block;" width="18.1429" height="17.0007" viewBox="0 0 18.1429 17.0007" fill="none"
    xmlns="http://www.w3.org/2000/svg">
    <g id="Group 4373">
        <path id="Vector" d="M0.5 8.29554C0.5 5.20139 0.5 3.6539 1.50457 2.69308C2.50914 1.73227 4.12486 1.73145 7.35714 1.73145H10.7857C14.018 1.73145 15.6346 1.73145 16.6383 2.69308C17.642 3.65472 17.6429 5.20139 17.6429 8.29554V9.93656C17.6429 13.0307 17.6429 14.5782 16.6383 15.539C15.6337 16.4998 14.018 16.5007 10.7857 16.5007H7.35714C4.12486 16.5007 2.50829 16.5007 1.50457 15.539C0.500857 14.5774 0.5 13.0307 0.5 9.93656V8.29554Z" stroke="#3B3731"/>
        <path id="Vector_2" d="M4.78585 1.73077V0.5M13.3573 1.73077V0.5M0.928711 5.83333H17.2144" stroke="#3B3731" stroke-linecap="round"/>
        <path id="Vector_3" d="M14.2139 12.3975C14.2139 12.6151 14.1236 12.8238 13.9629 12.9777C13.8021 13.1315 13.5841 13.218 13.3568 13.218C13.1295 13.218 12.9114 13.1315 12.7507 12.9777C12.59 12.8238 12.4997 12.6151 12.4997 12.3975C12.4997 12.1799 12.59 11.9712 12.7507 11.8173C12.9114 11.6634 13.1295 11.577 13.3568 11.577C13.5841 11.577 13.8021 11.6634 13.9629 11.8173C14.1236 11.9712 14.2139 12.1799 14.2139 12.3975ZM14.2139 9.11543C14.2139 9.33305 14.1236 9.54175 13.9629 9.69562C13.8021 9.8495 13.5841 9.93595 13.3568 9.93595C13.1295 9.93595 12.9114 9.8495 12.7507 9.69562C12.59 9.54175 12.4997 9.33305 12.4997 9.11543C12.4997 8.89782 12.59 8.68912 12.7507 8.53524C12.9114 8.38137 13.1295 8.29492 13.3568 8.29492C13.5841 8.29492 13.8021 8.38137 13.9629 8.53524C14.1236 8.68912 14.2139 8.89782 14.2139 9.11543ZM9.92822 12.3975C9.92822 12.6151 9.83792 12.8238 9.67717 12.9777C9.51643 13.1315 9.29841 13.218 9.07108 13.218C8.84375 13.218 8.62573 13.1315 8.46499 12.9777C8.30424 12.8238 8.21394 12.6151 8.21394 12.3975C8.21394 12.1799 8.30424 11.9712 8.46499 11.8173C8.62573 11.6634 8.84375 11.577 9.07108 11.577C9.29841 11.577 9.51643 11.6634 9.67717 11.8173C9.83792 11.9712 9.92822 12.1799 9.92822 12.3975ZM9.92822 9.11543C9.92822 9.33305 9.83792 9.54175 9.67717 9.69562C9.51643 9.8495 9.29841 9.93595 9.07108 9.93595C8.84375 9.93595 8.62573 9.8495 8.46499 9.69562C8.30424 9.54175 8.21394 9.33305 8.21394 9.11543C8.21394 8.89782 8.30424 8.68912 8.46499 8.53524C8.62573 8.38137 8.84375 8.29492 9.07108 8.29492C9.29841 8.29492 9.51643 8.38137 9.67717 8.53524C9.83792 8.68912 9.92822 8.89782 9.92822 9.11543ZM5.64251 12.3975C5.64251 12.6151 5.5522 12.8238 5.39146 12.9777C5.23071 13.1315 5.01269 13.218 4.78537 13.218C4.55804 13.218 4.34002 13.1315 4.17927 12.9777C4.01853 12.8238 3.92822 12.6151 3.92822 12.3975C3.92822 12.1799 4.01853 11.9712 4.17927 11.8173C4.34002 11.6634 4.55804 11.577 4.78537 11.577C5.01269 11.577 5.23071 11.6634 5.39146 11.8173C5.5522 11.9712 5.64251 12.1799 5.64251 12.3975ZM5.64251 9.11543C5.64251 9.33305 5.5522 9.54175 5.39146 9.69562C5.23071 9.8495 5.01269 9.93595 4.78537 9.93595C4.55804 9.93595 4.34002 9.8495 4.17927 9.69562C4.01853 9.54175 3.92822 9.33305 3.92822 9.11543C3.92822 8.89782 4.01853 8.68912 4.17927 8.53524C4.34002 8.38137 4.55804 8.29492 4.78537 8.29492C5.01269 8.29492 5.23071 8.38137 5.39146 8.53524C5.5522 8.68912 5.64251 8.89782 5.64251 9.11543Z" fill="#3B3731"/>
    </g>
</svg>
