<svg width="12" height="12" viewBox="0 0 12.2821 12" fill="none"
    xmlns="http://www.w3.org/2000/svg">
    <path d="M0.500001 5.85897C0.500001 3.73174 0.500001 2.66785 1.16113 2.00728C1.82226 1.34672 2.88559 1.34615 5.01282 1.34615H7.26923C9.39646 1.34615 10.4604 1.34615 11.1209 2.00728C11.7815 2.66841 11.7821 3.73174 11.7821 5.85897V6.98718C11.7821 9.11441 11.7821 10.1783 11.1209 10.8389C10.4598 11.4994 9.39646 11.5 7.26923 11.5H5.01282C2.88559 11.5 1.82169 11.5 1.16113 10.8389C0.500565 10.1777 0.500001 9.11441 0.500001 6.98718V5.85897Z" stroke="white"/>
    <path d="M3.32051 1.34615V0.5M8.96154 1.34615V0.5M0.782052 4.16667H11.5" stroke="white" stroke-linecap="round"/>
    <path d="M9.52564 8.67949C9.52564 8.8291 9.46621 8.97258 9.36042 9.07837C9.25463 9.18416 9.11115 9.24359 8.96154 9.24359C8.81193 9.24359 8.66845 9.18416 8.56266 9.07837C8.45687 8.97258 8.39744 8.8291 8.39744 8.67949C8.39744 8.52988 8.45687 8.3864 8.56266 8.28061C8.66845 8.17482 8.81193 8.11538 8.96154 8.11538C9.11115 8.11538 9.25463 8.17482 9.36042 8.28061C9.46621 8.3864 9.52564 8.52988 9.52564 8.67949ZM9.52564 6.42308C9.52564 6.57269 9.46621 6.71617 9.36042 6.82196C9.25463 6.92775 9.11115 6.98718 8.96154 6.98718C8.81193 6.98718 8.66845 6.92775 8.56266 6.82196C8.45687 6.71617 8.39744 6.57269 8.39744 6.42308C8.39744 6.27347 8.45687 6.12999 8.56266 6.0242C8.66845 5.91841 8.81193 5.85897 8.96154 5.85897C9.11115 5.85897 9.25463 5.91841 9.36042 6.0242C9.46621 6.12999 9.52564 6.27347 9.52564 6.42308ZM6.70513 8.67949C6.70513 8.8291 6.6457 8.97258 6.53991 9.07837C6.43412 9.18416 6.29064 9.24359 6.14103 9.24359C5.99142 9.24359 5.84794 9.18416 5.74215 9.07837C5.63636 8.97258 5.57692 8.8291 5.57692 8.67949C5.57692 8.52988 5.63636 8.3864 5.74215 8.28061C5.84794 8.17482 5.99142 8.11538 6.14103 8.11538C6.29064 8.11538 6.43412 8.17482 6.53991 8.28061C6.6457 8.3864 6.70513 8.52988 6.70513 8.67949ZM6.70513 6.42308C6.70513 6.57269 6.6457 6.71617 6.53991 6.82196C6.43412 6.92775 6.29064 6.98718 6.14103 6.98718C5.99142 6.98718 5.84794 6.92775 5.74215 6.82196C5.63636 6.71617 5.57692 6.57269 5.57692 6.42308C5.57692 6.27347 5.63636 6.12999 5.74215 6.0242C5.84794 5.91841 5.99142 5.85897 6.14103 5.85897C6.29064 5.85897 6.43412 5.91841 6.53991 6.0242C6.6457 6.12999 6.70513 6.27347 6.70513 6.42308ZM3.88462 8.67949C3.88462 8.8291 3.82518 8.97258 3.71939 9.07837C3.6136 9.18416 3.47012 9.24359 3.32051 9.24359C3.1709 9.24359 3.02742 9.18416 2.92163 9.07837C2.81584 8.97258 2.75641 8.8291 2.75641 8.67949C2.75641 8.52988 2.81584 8.3864 2.92163 8.28061C3.02742 8.17482 3.1709 8.11538 3.32051 8.11538C3.47012 8.11538 3.6136 8.17482 3.71939 8.28061C3.82518 8.3864 3.88462 8.52988 3.88462 8.67949ZM3.88462 6.42308C3.88462 6.57269 3.82518 6.71617 3.71939 6.82196C3.6136 6.92775 3.47012 6.98718 3.32051 6.98718C3.1709 6.98718 3.02742 6.92775 2.92163 6.82196C2.81584 6.71617 2.75641 6.57269 2.75641 6.42308C2.75641 6.27347 2.81584 6.12999 2.92163 6.0242C3.02742 5.91841 3.1709 5.85897 3.32051 5.85897C3.47012 5.85897 3.6136 5.91841 3.71939 6.0242C3.82518 6.12999 3.88462 6.27347 3.88462 6.42308Z" fill="white"/>
</svg>
