<svg xmlns="http://www.w3.org/2000/svg" width="10" height="11" viewBox="0 0 10 11" fill="none">
    <path
        d="M4.44238 0.607422C4.57185 0.744073 4.74616 0.931439 4.91992 1.13867C5.10303 1.35674 5.28259 1.59 5.41504 1.80273L5.53027 2.00781C5.67188 2.29613 5.82691 2.67871 5.95312 3.00977L6.31934 3.9707L6.84863 3.08984L7.36816 2.22363C8.00034 3.03951 8.36478 3.89752 8.57324 4.61523L8.65625 4.92676C8.75477 5.32776 8.80434 5.66743 8.8291 5.90625V5.90723L8.85352 6.25879V6.27637C8.85352 8.61074 7.00462 10.5 4.6748 10.5C2.34575 10.4997 0.500054 8.61074 0.5 6.27539C0.5 5.67251 0.793512 4.17103 1.65918 2.90527L2.25684 3.90137L2.67285 4.59375L3.10742 3.91406C3.3166 3.5867 3.60263 3.11726 3.82324 2.67676V2.67578C3.99818 2.3258 4.14299 1.84921 4.25098 1.43652C4.33332 1.12184 4.39789 0.822897 4.44238 0.607422Z"
        fill="#FBAC83" stroke="#FBAC83" />
    <path fill-rule="evenodd" clip-rule="evenodd"
        d="M6.74108 8.29709C6.77149 7.71955 6.63866 7.14511 6.35782 6.63954C6.07697 6.13397 5.65944 5.71769 5.15303 5.43835C5.06311 5.38633 4.95649 5.37125 4.85567 5.3963C4.75484 5.42135 4.66768 5.48457 4.61255 5.57263L3.96852 6.60349L3.43271 5.95545C3.40327 5.91992 3.3668 5.89088 3.32558 5.87016C3.28436 5.84943 3.2393 5.83747 3.19323 5.83502C3.14716 5.83257 3.10108 5.83969 3.0579 5.85593C3.01472 5.87218 2.97537 5.89719 2.94233 5.92939C2.62692 6.23461 2.38055 6.60384 2.21979 7.01225C2.05903 7.42066 1.98761 7.85877 2.01035 8.29709C2.01035 8.92434 2.25953 9.52589 2.70305 9.96942C3.14658 10.4129 3.74814 10.6621 4.37538 10.6621C5.00263 10.6621 5.60418 10.4129 6.04771 9.96942C6.49124 9.52589 6.74108 8.92434 6.74108 8.29709Z"
        fill="white" />
    <path fill-rule="evenodd" clip-rule="evenodd"
        d="M6.74108 8.29709C6.77149 7.71955 6.63867 7.14511 6.35782 6.63954C6.07697 6.13397 5.65944 5.71769 5.15304 5.43835C5.06311 5.38633 4.95649 5.37125 4.85567 5.3963C4.75484 5.42135 4.66768 5.48457 4.61255 5.57263L3.96852 6.60349L3.43271 5.95545C3.40327 5.91992 3.3668 5.89088 3.32558 5.87016C3.28436 5.84943 3.2393 5.83747 3.19323 5.83502C3.14716 5.83257 3.10108 5.83969 3.0579 5.85593C3.01472 5.87218 2.97537 5.89719 2.94233 5.92939C2.62692 6.23461 2.38055 6.60384 2.21979 7.01225C2.05903 7.42066 1.98761 7.85877 2.01035 8.29709C2.01035 8.92434 2.25953 9.52589 2.70305 9.96942C3.14658 10.4129 3.74814 10.6621 4.37538 10.6621C5.00263 10.6621 5.60418 10.4129 6.04771 9.96942C6.49124 9.52589 6.74108 8.92434 6.74108 8.29709ZM3.16414 6.68032L3.12272 6.7351C2.80853 7.17399 2.65111 7.70579 2.67577 8.24498L2.67777 8.2844C2.67777 8.73445 2.85656 9.16608 3.17479 9.48432C3.49303 9.80255 3.92466 9.98134 4.37471 9.98134C4.82477 9.98134 5.25639 9.80255 5.57463 9.48432C5.89287 9.16608 6.07165 8.73445 6.07165 8.2844L6.07366 8.24565C6.07834 8.20222 6.18256 7.00768 5.08957 6.19529L5.03545 6.15587L4.33797 7.27158C4.30429 7.32539 4.25831 7.37043 4.20382 7.40299C4.14933 7.43556 4.08789 7.45471 4.02455 7.45889C3.96121 7.46306 3.89778 7.45214 3.83949 7.427C3.7812 7.40187 3.72971 7.36326 3.68926 7.31434L3.16414 6.68032Z"
        fill="#FBAC83" />
    <mask id="path-4-inside-1_164_345" fill="white">
        <path fill-rule="evenodd" clip-rule="evenodd"
            d="M3.99115 0.323969C4.00507 0.25224 4.03835 0.18569 4.0874 0.131536C4.13645 0.0773814 4.19939 0.0376891 4.2694 0.0167633C4.33941 -0.00416248 4.4138 -0.00552315 4.48453 0.0128289C4.55525 0.031181 4.6196 0.0685454 4.6706 0.12087C4.80021 0.253151 5.0494 0.515042 5.30261 0.817017C5.55114 1.11298 5.82238 1.46907 5.97871 1.78641C6.13103 2.0964 6.29271 2.49726 6.42032 2.83197L7.01425 1.8432C7.04737 1.78798 7.0933 1.74155 7.14817 1.70784C7.20304 1.67413 7.26522 1.65414 7.32945 1.64955C7.39368 1.64496 7.45807 1.65591 7.51717 1.68148C7.57627 1.70705 7.62834 1.74648 7.66897 1.79643C8.51276 2.83865 8.93299 3.95502 9.1421 4.8075C9.24699 5.23441 9.29977 5.59718 9.32649 5.85506C9.34009 5.98386 9.34901 6.11311 9.35322 6.24255V6.27662C9.35322 8.88016 7.28816 11 4.67527 11C2.06238 11 0 8.87949 0 6.27529C0 5.55843 0.33872 3.87017 1.34085 2.4859C1.37978 2.43255 1.43128 2.38965 1.49078 2.361C1.55028 2.33235 1.61594 2.31885 1.68192 2.3217C1.7479 2.32454 1.81215 2.34364 1.86897 2.3773C1.92579 2.41095 1.97341 2.45813 2.0076 2.51463L2.68571 3.64436C2.89148 3.32234 3.16673 2.87005 3.37584 2.45249C3.67648 1.85122 3.91499 0.717472 3.99115 0.324637M4.54099 0.959319C4.42006 1.49379 4.22031 2.25674 3.97311 2.75247C3.64441 3.40919 3.17074 4.13073 3.00773 4.37324C2.97001 4.42889 2.91891 4.47415 2.85913 4.50488C2.79934 4.5356 2.73279 4.5508 2.66559 4.54907C2.5984 4.54734 2.53272 4.52874 2.47459 4.49498C2.41646 4.46122 2.36776 4.41338 2.33296 4.35587L1.65151 3.22146C0.919288 4.40598 0.668087 5.73748 0.668087 6.27662C0.668087 8.52006 2.44119 10.3306 4.67527 10.3306C6.90936 10.3306 8.68513 8.52006 8.68513 6.27662V6.25792L8.68246 6.19111C8.6778 6.10165 8.6709 6.01232 8.66175 5.92321C8.62676 5.60117 8.57052 5.28179 8.49339 4.96717C8.28108 4.09054 7.90478 3.26201 7.38437 2.52532L6.70693 3.65305C6.66772 3.71819 6.61082 3.77086 6.54286 3.80494C6.47489 3.83901 6.39864 3.85309 6.32299 3.84553C6.24734 3.83797 6.17538 3.80909 6.1155 3.76224C6.05562 3.71539 6.01027 3.6525 5.98472 3.58089C5.87649 3.27758 5.61126 2.55338 5.37877 2.08171C5.26052 1.84053 5.03404 1.53588 4.79085 1.2466C4.70917 1.14945 4.62587 1.05368 4.54099 0.959319Z" />
    </mask>
    <path fill-rule="evenodd" clip-rule="evenodd"
        d="M3.99115 0.323969C4.00507 0.25224 4.03835 0.18569 4.0874 0.131536C4.13645 0.0773814 4.19939 0.0376891 4.2694 0.0167633C4.33941 -0.00416248 4.4138 -0.00552315 4.48453 0.0128289C4.55525 0.031181 4.6196 0.0685454 4.6706 0.12087C4.80021 0.253151 5.0494 0.515042 5.30261 0.817017C5.55114 1.11298 5.82238 1.46907 5.97871 1.78641C6.13103 2.0964 6.29271 2.49726 6.42032 2.83197L7.01425 1.8432C7.04737 1.78798 7.0933 1.74155 7.14817 1.70784C7.20304 1.67413 7.26522 1.65414 7.32945 1.64955C7.39368 1.64496 7.45807 1.65591 7.51717 1.68148C7.57627 1.70705 7.62834 1.74648 7.66897 1.79643C8.51276 2.83865 8.93299 3.95502 9.1421 4.8075C9.24699 5.23441 9.29977 5.59718 9.32649 5.85506C9.34009 5.98386 9.34901 6.11311 9.35322 6.24255V6.27662C9.35322 8.88016 7.28816 11 4.67527 11C2.06238 11 0 8.87949 0 6.27529C0 5.55843 0.33872 3.87017 1.34085 2.4859C1.37978 2.43255 1.43128 2.38965 1.49078 2.361C1.55028 2.33235 1.61594 2.31885 1.68192 2.3217C1.7479 2.32454 1.81215 2.34364 1.86897 2.3773C1.92579 2.41095 1.97341 2.45813 2.0076 2.51463L2.68571 3.64436C2.89148 3.32234 3.16673 2.87005 3.37584 2.45249C3.67648 1.85122 3.91499 0.717472 3.99115 0.324637M4.54099 0.959319C4.42006 1.49379 4.22031 2.25674 3.97311 2.75247C3.64441 3.40919 3.17074 4.13073 3.00773 4.37324C2.97001 4.42889 2.91891 4.47415 2.85913 4.50488C2.79934 4.5356 2.73279 4.5508 2.66559 4.54907C2.5984 4.54734 2.53272 4.52874 2.47459 4.49498C2.41646 4.46122 2.36776 4.41338 2.33296 4.35587L1.65151 3.22146C0.919288 4.40598 0.668087 5.73748 0.668087 6.27662C0.668087 8.52006 2.44119 10.3306 4.67527 10.3306C6.90936 10.3306 8.68513 8.52006 8.68513 6.27662V6.25792L8.68246 6.19111C8.6778 6.10165 8.6709 6.01232 8.66175 5.92321C8.62676 5.60117 8.57052 5.28179 8.49339 4.96717C8.28108 4.09054 7.90478 3.26201 7.38437 2.52532L6.70693 3.65305C6.66772 3.71819 6.61082 3.77086 6.54286 3.80494C6.47489 3.83901 6.39864 3.85309 6.32299 3.84553C6.24734 3.83797 6.17538 3.80909 6.1155 3.76224C6.05562 3.71539 6.01027 3.6525 5.98472 3.58089C5.87649 3.27758 5.61126 2.55338 5.37877 2.08171C5.26052 1.84053 5.03404 1.53588 4.79085 1.2466C4.70917 1.14945 4.62587 1.05368 4.54099 0.959319Z"
        fill="#FBAC83" />
    <path
        d="M4.6706 0.12087L3.95446 0.818836L3.95631 0.820725L4.6706 0.12087ZM5.30261 0.817017L4.53633 1.45953L4.5368 1.46009L5.30261 0.817017ZM5.97871 1.78641L6.87621 1.3454L6.87577 1.34449L5.97871 1.78641ZM6.42032 2.83197L5.48592 3.1882L6.21855 5.10991L7.27755 3.34689L6.42032 2.83197ZM7.01425 1.8432L7.87148 2.35812L7.87182 2.35756L7.01425 1.8432ZM7.66897 1.79643L8.44618 1.16719L8.44473 1.1654L7.66897 1.79643ZM9.1421 4.8075L8.17089 5.04574L8.17098 5.0461L9.1421 4.8075ZM9.32649 5.85506L8.33182 5.95814L8.33202 5.96007L9.32649 5.85506ZM9.35322 6.24255H10.3532V6.22629L10.3527 6.21005L9.35322 6.24255ZM1.34085 2.4859L0.533031 1.89646L0.530832 1.89949L1.34085 2.4859ZM2.0076 2.51463L2.86501 1.99998L2.86312 1.99686L2.0076 2.51463ZM2.68571 3.64436L1.82831 4.15901L2.65911 5.54314L3.52836 4.18282L2.68571 3.64436ZM3.37584 2.45249L4.26999 2.90028L4.27027 2.89971L3.37584 2.45249ZM4.54099 0.959319L5.28441 0.290499L3.99205 -1.14602L3.56564 0.738647L4.54099 0.959319ZM3.97311 2.75247L4.86736 3.20004L4.86802 3.19871L3.97311 2.75247ZM3.00773 4.37324L3.83552 4.9343L3.83766 4.93111L3.00773 4.37324ZM2.33296 4.35587L1.47573 4.87082L1.47741 4.87359L2.33296 4.35587ZM1.65151 3.22146L2.50874 2.70652L1.66374 1.29985L0.800909 2.69565L1.65151 3.22146ZM8.68513 6.25792H9.68513V6.23793L9.68433 6.21795L8.68513 6.25792ZM8.68246 6.19111L9.68173 6.15114L9.68111 6.13912L8.68246 6.19111ZM8.66175 5.92321L9.65654 5.82109L9.6559 5.8152L8.66175 5.92321ZM8.49339 4.96717L7.52148 5.20256L7.52215 5.20527L8.49339 4.96717ZM7.38437 2.52532L8.20113 1.94834L7.31659 0.69619L6.52714 2.01037L7.38437 2.52532ZM6.70693 3.65305L7.56372 4.16871L7.56415 4.16799L6.70693 3.65305ZM5.98472 3.58089L6.9266 3.24493L6.92656 3.24482L5.98472 3.58089ZM5.37877 2.08171L4.48088 2.52194L4.48181 2.52383L5.37877 2.08171ZM4.79085 1.2466L5.55631 0.603115L5.55628 0.60307L4.79085 1.2466ZM3.99115 0.323969L4.97285 0.51442C4.95199 0.621931 4.9021 0.721679 4.82858 0.802848L4.0874 0.131536L3.34623 -0.539776C3.17461 -0.350298 3.05814 -0.117451 3.00946 0.133517L3.99115 0.323969ZM4.0874 0.131536L4.82858 0.802848C4.75506 0.884017 4.66072 0.94351 4.5558 0.974874L4.2694 0.0167633L3.983 -0.941348C3.73807 -0.868132 3.51785 -0.729254 3.34623 -0.539776L4.0874 0.131536ZM4.2694 0.0167633L4.5558 0.974874C4.45087 1.00624 4.33936 1.00828 4.23335 0.980771L4.48453 0.0128289L4.7357 -0.955114C4.48825 -1.01932 4.22794 -1.01456 3.983 -0.941348L4.2694 0.0167633ZM4.48453 0.0128289L4.23335 0.980771C4.12735 0.953265 4.0309 0.897261 3.95446 0.818834L4.6706 0.12087L5.38673 -0.577094C5.2083 -0.760171 4.98315 -0.890903 4.7357 -0.955114L4.48453 0.0128289ZM4.6706 0.12087L3.95631 0.820725C4.07517 0.942031 4.30529 1.18398 4.53633 1.45953L5.30261 0.817017L6.06888 0.174501C5.79352 -0.153898 5.52524 -0.435728 5.38488 -0.578985L4.6706 0.12087ZM5.30261 0.817017L4.5368 1.46009C4.7767 1.74578 4.98159 2.0252 5.08166 2.22833L5.97871 1.78641L6.87577 1.34449C6.66317 0.912941 6.32557 0.480181 6.06841 0.173946L5.30261 0.817017ZM5.97871 1.78641L5.08121 2.22742C5.21241 2.49442 5.3608 2.86002 5.48592 3.1882L6.42032 2.83197L7.35471 2.47574C7.22462 2.13449 7.04966 1.69839 6.87621 1.3454L5.97871 1.78641ZM6.42032 2.83197L7.27755 3.34689L7.87148 2.35812L7.01425 1.8432L6.15701 1.32828L5.56308 2.31705L6.42032 2.83197ZM7.01425 1.8432L7.87182 2.35756C7.82231 2.4401 7.75365 2.5095 7.67164 2.55988L7.14817 1.70784L6.6247 0.855795C6.43296 0.973593 6.27242 1.13585 6.15667 1.32884L7.01425 1.8432ZM7.14817 1.70784L7.67164 2.55988C7.58964 2.61026 7.4967 2.64015 7.40069 2.64701L7.32945 1.64955L7.2582 0.652089C7.03373 0.668122 6.81644 0.737997 6.6247 0.855795L7.14817 1.70784ZM7.32945 1.64955L7.40069 2.64701C7.30469 2.65386 7.20844 2.63749 7.12011 2.59928L7.51717 1.68148L7.91422 0.763687C7.70769 0.674336 7.48267 0.636056 7.2582 0.652089L7.32945 1.64955ZM7.51717 1.68148L7.12011 2.59928C7.03178 2.56106 6.95395 2.50213 6.89321 2.42746L7.66897 1.79643L8.44473 1.1654C8.30273 0.99083 8.12076 0.853037 7.91422 0.763687L7.51717 1.68148ZM7.66897 1.79643L6.89176 2.42567C7.61847 3.32328 7.98627 4.2931 8.17089 5.04574L9.1421 4.8075L10.1133 4.56927C9.87971 3.61695 9.40706 2.35402 8.44618 1.16719L7.66897 1.79643ZM9.1421 4.8075L8.17098 5.0461C8.26324 5.42159 8.30904 5.73834 8.33182 5.95814L9.32649 5.85506L10.3212 5.75199C10.2905 5.45602 10.2307 5.04722 10.1132 4.5689L9.1421 4.8075ZM9.32649 5.85506L8.33202 5.96007C8.34308 6.06477 8.35032 6.16984 8.35375 6.27506L9.35322 6.24255L10.3527 6.21005C10.3477 6.05638 10.3371 5.90295 10.321 5.75005L9.32649 5.85506ZM9.35322 6.24255H8.35322V6.27662H9.35322H10.3532V6.24255H9.35322ZM9.35322 6.27662H8.35322C8.35322 8.34183 6.72202 10 4.67527 10V11V12C7.8543 12 10.3532 9.41848 10.3532 6.27662H9.35322ZM4.67527 11V10C2.62954 10 1 8.3422 1 6.27529H0H-1C-1 9.41679 1.49523 12 4.67527 12V11ZM0 6.27529H1C1 5.74637 1.28489 4.26851 2.15087 3.0723L1.34085 2.4859L0.530832 1.89949C-0.60745 3.47184 -1 5.3705 -1 6.27529H0ZM1.34085 2.4859L2.14866 3.07534C2.09048 3.15507 2.0135 3.2192 1.92456 3.26202L1.49078 2.361L1.057 1.45998C0.849056 1.56009 0.669069 1.71003 0.533037 1.89646L1.34085 2.4859ZM1.49078 2.361L1.92456 3.26202C1.83563 3.30484 1.73749 3.32502 1.63887 3.32077L1.68192 2.3217L1.72497 1.32262C1.4944 1.31269 1.26494 1.35987 1.057 1.45998L1.49078 2.361ZM1.68192 2.3217L1.63887 3.32077C1.54026 3.31652 1.44422 3.28797 1.35929 3.23766L1.86897 2.3773L2.37864 1.51693C2.18008 1.3993 1.95554 1.33256 1.72497 1.32262L1.68192 2.3217ZM1.86897 2.3773L1.35929 3.23766C1.27437 3.18735 1.20319 3.11684 1.15208 3.0324L2.0076 2.51463L2.86312 1.99686C2.74363 1.79941 2.5772 1.63455 2.37864 1.51693L1.86897 2.3773ZM2.0076 2.51463L1.1502 3.02927L1.82831 4.15901L2.68571 3.64436L3.54311 3.12972L2.86501 1.99998L2.0076 2.51463ZM2.68571 3.64436L3.52836 4.18282C3.74101 3.85004 4.03784 3.36382 4.26998 2.90028L3.37584 2.45249L2.4817 2.00471C2.29562 2.37628 2.04195 2.79465 1.84306 3.1059L2.68571 3.64436ZM3.37584 2.45249L4.27027 2.89971C4.46993 2.50039 4.62575 1.98129 4.73508 1.56364C4.84917 1.12779 4.93245 0.723448 4.97287 0.51497L3.99115 0.324637L3.00943 0.134303C2.97369 0.31866 2.89963 0.677604 2.80027 1.05715C2.69615 1.45491 2.58239 1.80332 2.48142 2.00528L3.37584 2.45249ZM4.54099 0.959319L3.56564 0.738647C3.44418 1.27548 3.26562 1.93036 3.0782 2.30622L3.97311 2.75247L4.86802 3.19871C5.17499 2.58313 5.39595 1.7121 5.51634 1.17999L4.54099 0.959319ZM3.97311 2.75247L3.07887 2.30489C2.78051 2.90099 2.33726 3.57815 2.17779 3.81538L3.00773 4.37324L3.83766 4.93111C4.00422 4.68331 4.50832 3.9174 4.86736 3.20004L3.97311 2.75247ZM3.00773 4.37324L2.17995 3.81219C2.23631 3.72903 2.31269 3.66137 2.40205 3.61545L2.85913 4.50488L3.3162 5.3943C3.52514 5.28693 3.70372 5.12875 3.83551 4.9343L3.00773 4.37324ZM2.85913 4.50488L2.40205 3.61545C2.49142 3.56952 2.59089 3.54681 2.69133 3.5494L2.66559 4.54907L2.63986 5.54873C2.87469 5.55478 3.10727 5.50167 3.3162 5.3943L2.85913 4.50488ZM2.66559 4.54907L2.69133 3.5494C2.79177 3.55198 2.88994 3.57978 2.97682 3.63024L2.47459 4.49498L1.97236 5.35971C2.17549 5.47769 2.40503 5.54269 2.63986 5.54873L2.66559 4.54907ZM2.47459 4.49498L2.97682 3.63024C3.0637 3.6807 3.1365 3.7522 3.18851 3.83816L2.33296 4.35587L1.47741 4.87359C1.59902 5.07457 1.76923 5.24173 1.97236 5.35971L2.47459 4.49498ZM2.33296 4.35587L3.19019 3.84093L2.50874 2.70652L1.65151 3.22146L0.794286 3.7364L1.47573 4.87082L2.33296 4.35587ZM1.65151 3.22146L0.800909 2.69565C-0.0307801 4.04108 -0.331913 5.55519 -0.331913 6.27662H0.668087H1.66809C1.66809 5.91977 1.86936 4.77088 2.50211 3.74727L1.65151 3.22146ZM0.668087 6.27662H-0.331913C-0.331913 9.05867 1.87532 11.3306 4.67527 11.3306V10.3306V9.33058C3.00706 9.33058 1.66809 7.98146 1.66809 6.27662H0.668087ZM4.67527 10.3306V11.3306C7.47436 11.3306 9.68513 9.05954 9.68513 6.27662H8.68513H7.68513C7.68513 7.98058 6.34435 9.33058 4.67527 9.33058V10.3306ZM8.68513 6.27662H9.68513V6.25792H8.68513H7.68513V6.27662H8.68513ZM8.68513 6.25792L9.68433 6.21795L9.68166 6.15114L8.68246 6.19111L7.68326 6.23107L7.68593 6.29788L8.68513 6.25792ZM8.68246 6.19111L9.68111 6.13912C9.67558 6.03292 9.66738 5.92688 9.65652 5.82109L8.66175 5.92321L7.66698 6.02532C7.67441 6.09776 7.68003 6.17038 7.68381 6.2431L8.68246 6.19111ZM8.66175 5.92321L9.6559 5.8152C9.61615 5.44934 9.55225 5.0865 9.46463 4.72907L8.49339 4.96717L7.52215 5.20527C7.58878 5.47708 7.63737 5.753 7.6676 6.03121L8.66175 5.92321ZM8.49339 4.96717L9.46529 4.73179C9.22328 3.73253 8.79434 2.78809 8.20113 1.94834L7.38437 2.52532L6.5676 3.10229C7.01522 3.73593 7.33888 4.44856 7.52149 5.20256L8.49339 4.96717ZM7.38437 2.52532L6.52714 2.01037L5.8497 3.1381L6.70693 3.65305L7.56415 4.16799L8.24159 3.04026L7.38437 2.52532ZM6.70693 3.65305L5.85013 3.13739C5.90857 3.04029 5.99338 2.96178 6.09468 2.91099L6.54286 3.80494L6.99103 4.69888C7.22827 4.57994 7.42687 4.39609 7.56372 4.16871L6.70693 3.65305ZM6.54286 3.80494L6.09468 2.91099C6.19599 2.8602 6.30964 2.83922 6.4224 2.85048L6.32299 3.84553L6.22358 4.84058C6.48765 4.86696 6.75379 4.81782 6.99103 4.69888L6.54286 3.80494ZM6.32299 3.84553L6.4224 2.85048C6.53517 2.86175 6.64242 2.9048 6.73167 2.97463L6.1155 3.76224L5.49933 4.54985C5.70835 4.71338 5.9595 4.81419 6.22358 4.84058L6.32299 3.84553ZM6.1155 3.76224L6.73167 2.97463C6.82093 3.04446 6.88853 3.13819 6.9266 3.24493L5.98472 3.58089L5.04285 3.91685C5.13201 4.16681 5.2903 4.38633 5.49933 4.54985L6.1155 3.76224ZM5.98472 3.58089L6.92656 3.24482C6.82032 2.94707 6.53738 2.17042 6.27572 1.63958L5.37877 2.08171L4.48181 2.52383C4.68514 2.93633 4.93267 3.60809 5.04289 3.91697L5.98472 3.58089ZM5.37877 2.08171L6.27665 1.64147C6.10174 1.28472 5.80807 0.902591 5.55631 0.603115L4.79085 1.2466L4.02539 1.89008C4.26 2.16917 4.4193 2.39633 4.48089 2.52194L5.37877 2.08171ZM4.79085 1.2466L5.55628 0.60307C5.46741 0.497369 5.37677 0.393164 5.28441 0.290499L4.54099 0.959319L3.79756 1.62814C3.87498 1.71419 3.95094 1.80153 4.02543 1.89012L4.79085 1.2466Z"
        fill="#FBAC83" mask="url(#path-4-inside-1_164_345)" />
</svg>