<svg xmlns="http://www.w3.org/2000/svg" width="151" height="100" viewBox="0 0 151 100" fill="none">
    <path
        d="M23.7622 17.8218C23.7622 7.97908 31.7413 0 41.584 0H105.94C115.783 0 123.762 7.97908 123.762 17.8218C123.762 27.6645 115.783 35.6436 105.94 35.6436H41.584C31.7413 35.6436 23.7622 27.6645 23.7622 17.8218Z"
        fill="#FFE0B2" />
    <path
        d="M0 51.9801C0 42.4108 7.75744 34.6533 17.3267 34.6533H82.6733C92.2425 34.6533 100 42.4108 100 51.9801C100 61.5493 92.2426 69.3068 82.6733 69.3068H17.3267C7.75746 69.3068 0 61.5493 0 51.9801Z"
        fill="#FBAC83" fill-opacity="0.62" />
    <path
        d="M50.4951 82.1782C50.4951 72.3355 58.4742 64.3564 68.3169 64.3564H132.673C142.516 64.3564 150.495 72.3355 150.495 82.1782C150.495 92.0209 142.516 100 132.673 100H68.3169C58.4742 100 50.4951 92.0209 50.4951 82.1782Z"
        fill="#D8E8B7" fill-opacity="0.78" />
    <path
        d="M52.4084 42.0073L47.0184 54.1367C40.2131 69.4413 36.8141 77.0937 40.5284 80.808C44.2428 84.5223 51.8877 81.1197 67.1924 74.318L79.3291 68.9207C88.5581 64.8177 93.1744 62.768 93.9077 58.8117C94.6411 54.8553 91.0697 51.284 83.9271 44.145L77.1878 37.402C70.0488 30.2593 66.4774 26.688 62.5211 27.425C58.5648 28.1583 56.5151 32.7747 52.4121 42.0037M55.4957 40.1667L81.1624 65.8333M48.1624 58.5L62.8291 73.1667M90.3291 31L101.329 20M83.7181 9C85.1847 11.4457 86.3544 17.8 79.3291 23.6667M112.329 37.611C109.883 36.1443 103.529 34.9747 97.6624 42M97.6624 9V9.07333M112.329 23.6667V23.74M108.662 49.3333V49.4067M71.9957 12.6667V12.74"
        stroke="#3B3731" stroke-width="4" stroke-linecap="round" stroke-linejoin="round" />
</svg>