<svg xmlns="http://www.w3.org/2000/svg" width="151" height="100" viewBox="0 0 151 100" fill="none">
    <path
        d="M23.7622 17.8218C23.7622 7.97908 31.7413 0 41.584 0H105.94C115.783 0 123.762 7.97908 123.762 17.8218C123.762 27.6645 115.783 35.6436 105.94 35.6436H41.584C31.7413 35.6436 23.7622 27.6645 23.7622 17.8218Z"
        fill="#FFE0B2" />
    <path
        d="M0 51.9802C0 42.4109 7.75744 34.6534 17.3267 34.6534H82.6733C92.2425 34.6534 100 42.4109 100 51.9802C100 61.5495 92.2426 69.3069 82.6733 69.3069H17.3267C7.75746 69.3069 0 61.5495 0 51.9802Z"
        fill="#FFE0B2" />
    <path
        d="M50.4951 82.1782C50.4951 72.3355 58.4742 64.3564 68.3169 64.3564H132.673C142.516 64.3564 150.495 72.3355 150.495 82.1782C150.495 92.0209 142.516 100 132.673 100H68.3169C58.4742 100 50.4951 92.0209 50.4951 82.1782Z"
        fill="#FFE0B2" />
    <path
        d="M43.5461 82H107.226C113.942 82 119.386 76.4968 119.386 69.7083V35.2917C119.386 28.5032 113.942 23 107.226 23H43.5461C36.8304 23 31.3862 28.5032 31.3862 35.2917V69.7083C31.3862 76.4968 36.8304 82 43.5461 82Z"
        fill="white" />
    <path
        d="M107.226 79.1282V82H43.5462V79.1282H107.226ZM116.519 69.708V35.2913C116.519 30.0643 112.334 25.8718 107.226 25.8718H43.5462C38.4386 25.8718 34.2535 30.0642 34.2533 35.2913V69.708C34.2533 74.9352 38.4386 79.1282 43.5462 79.1282V82L43.2326 81.9958C36.6618 81.8277 31.3862 76.3905 31.3862 69.708V35.2913C31.3864 28.609 36.6619 23.1723 43.2326 23.0042L43.5462 23H107.226C113.942 23 119.386 28.503 119.386 35.2913V69.708L119.382 70.0256C119.215 76.6673 113.837 82 107.226 82V79.1282C112.334 79.1282 116.519 74.9351 116.519 69.708Z"
        fill="#3B3731" />
    <path fill-rule="evenodd" clip-rule="evenodd"
        d="M49.5291 39C48.9634 39 48.5199 39.3557 48.2457 39.7824C47.9679 40.2125 47.8148 40.7739 47.8148 41.3636C47.8148 41.9534 47.9679 42.5147 48.2457 42.9449C48.5199 43.3704 48.9634 43.7273 49.5291 43.7273C50.0948 43.7273 50.5382 43.3715 50.8125 42.9449C51.0902 42.5147 51.2434 41.9534 51.2434 41.3636C51.2434 40.7739 51.0902 40.2125 50.8125 39.7824C50.5382 39.3569 50.0948 39 49.5291 39ZM55.2434 39C54.6777 39 54.2342 39.3557 53.9599 39.7824C53.6822 40.2125 53.5291 40.7739 53.5291 41.3636C53.5291 41.9534 53.6822 42.5147 53.9599 42.9449C54.2342 43.3704 54.6777 43.7273 55.2434 43.7273C55.8091 43.7273 56.2525 43.3715 56.5268 42.9449C56.8045 42.5147 56.9577 41.9534 56.9577 41.3636C56.9577 40.7739 56.8045 40.2125 56.5268 39.7824C56.2525 39.3569 55.8091 39 55.2434 39ZM46.1005 44.3182C45.5348 44.3182 45.0914 44.6739 44.8171 45.1005C44.5394 45.5307 44.3862 46.0921 44.3862 46.6818C44.3862 47.2715 44.5394 47.8329 44.8171 48.2631C45.0914 48.6885 45.5348 49.0455 46.1005 49.0455C46.6662 49.0455 47.1097 48.6897 47.3839 48.2631C47.6617 47.8329 47.8148 47.2715 47.8148 46.6818C47.8148 46.0921 47.6617 45.5307 47.3839 45.1005C47.1097 44.6751 46.6662 44.3182 46.1005 44.3182ZM52.3862 44.3182C51.0148 44.3182 49.9988 45.0793 49.3497 46.0235C48.7085 46.9536 48.3862 48.1083 48.3862 49.0455C48.3862 50.1375 49.0205 50.8974 49.7988 51.3524C50.5645 51.8015 51.5245 52 52.3862 52C53.2479 52 54.2079 51.8026 54.9737 51.3524C55.7508 50.8962 56.3862 50.1375 56.3862 49.0455C56.3862 48.1083 56.0639 46.9536 55.4228 46.0235C54.7748 45.0781 53.7588 44.3182 52.3862 44.3182ZM58.6719 44.3182C58.1062 44.3182 57.6628 44.6739 57.3885 45.1005C57.1108 45.5307 56.9577 46.0921 56.9577 46.6818C56.9577 47.2715 57.1108 47.8329 57.3885 48.2631C57.6628 48.6885 58.1062 49.0455 58.6719 49.0455C59.2377 49.0455 59.6811 48.6897 59.9554 48.2631C60.2331 47.8329 60.3862 47.2715 60.3862 46.6818C60.3862 46.0921 60.2331 45.5307 59.9554 45.1005C59.6811 44.6751 59.2377 44.3182 58.6719 44.3182Z"
        fill="#3B3731" />
    <path
        d="M63.355 45.4995C63.3548 39.1657 58.2196 34.0312 51.8857 34.0312C45.5521 34.0314 40.4176 39.1658 40.4175 45.4995C40.4175 51.8333 45.5519 56.9686 51.8857 56.9688V59L51.5376 58.995C44.2429 58.8102 38.3862 52.8387 38.3862 45.4995C38.3864 38.044 44.4302 32.0002 51.8857 32C59.3414 32 65.3861 38.0439 65.3862 45.4995L65.3813 45.8486C65.1963 53.1432 59.2249 59 51.8857 59V56.9688C58.2197 56.9688 63.355 51.8334 63.355 45.4995Z"
        fill="#3B3731" />
    <path
        d="M75.3862 34.5C75.3862 33.1193 76.4978 32 77.869 32H108.903C110.275 32 111.386 33.1193 111.386 34.5C111.386 35.8807 110.275 37 108.903 37H77.869C76.4978 37 75.3862 35.8807 75.3862 34.5Z"
        fill="#3B3731" />
    <path
        d="M75.3862 45.5C75.3862 44.1193 76.4978 43 77.869 43H108.903C110.275 43 111.386 44.1193 111.386 45.5C111.386 46.8807 110.275 48 108.903 48H77.869C76.4978 48 75.3862 46.8807 75.3862 45.5Z"
        fill="#3B3731" />
    <path
        d="M75.3862 56.5C75.3862 55.1193 76.4978 54 77.869 54H108.903C110.275 54 111.386 55.1193 111.386 56.5C111.386 57.8807 110.275 59 108.903 59H77.869C76.4978 59 75.3862 57.8807 75.3862 56.5Z"
        fill="#3B3731" />
    <path
        d="M108.821 70.2915V73H41.9528V70.2915H108.821ZM109.972 69.0007C109.972 68.2874 109.457 67.7088 108.821 67.7085H41.9528C41.3168 67.7085 40.8009 68.2872 40.8009 69.0007C40.8011 69.7139 41.3169 70.2915 41.9528 70.2915V73L41.7689 72.996C39.9452 72.8923 38.4832 71.2513 38.3909 69.2057L38.3862 69.0007C38.3862 66.8604 39.8846 65.1125 41.7689 65.0053L41.9528 65H108.821L109.004 65.0053C110.888 65.1123 112.386 66.8603 112.386 69.0007L112.382 69.2057C112.289 71.2515 110.827 72.8925 109.004 72.996L108.821 73V70.2915C109.457 70.2912 109.971 69.7137 109.972 69.0007Z"
        fill="#3B3731" />
</svg>