<svg width="145" height="40" viewBox="0 0 145 40" fill="none" xmlns="http://www.w3.org/2000/svg">
<path d="M132.206 12.7941C134.795 12.7941 137.035 13.2385 138.927 14.1273C140.852 14.9832 142.345 16.3987 143.407 18.3738C144.469 20.349 145 22.9989 145 26.3237C145 29.6485 144.469 32.2985 143.407 34.2736C142.345 36.2487 140.852 37.6642 138.927 38.5201C137.035 39.376 134.795 39.8039 132.206 39.8039C129.651 39.8039 127.41 39.376 125.485 38.5201C123.561 37.6642 122.067 36.2487 121.005 34.2736C119.943 32.2985 119.412 29.6485 119.412 26.3237C119.412 22.9989 119.943 20.349 121.005 18.3738C122.067 16.3987 123.561 14.9832 125.485 14.1273C127.41 13.2385 129.651 12.7941 132.206 12.7941ZM132.206 13.7817C131.21 13.7817 130.381 14.7692 129.717 16.7444C129.053 18.7195 128.721 21.9126 128.721 26.3237C128.721 30.7348 129.053 33.9279 129.717 35.9031C130.381 37.8453 131.21 38.8164 132.206 38.8164C133.202 38.8164 134.031 37.8453 134.695 35.9031C135.359 33.9279 135.691 30.7348 135.691 26.3237C135.691 21.9126 135.359 18.7195 134.695 16.7444C134.031 14.7692 133.202 13.7817 132.206 13.7817Z" fill="#FFC97A"/>
<path d="M81.26 12.3203C82.7431 12.3203 84.0409 12.4877 85.1532 12.8227C86.2992 13.1242 87.125 13.4089 87.6306 13.6769C88.8104 14.3803 89.5351 13.9448 89.8047 12.3705H90.816C90.7485 13.3419 90.698 14.531 90.6643 15.9378C90.6306 17.3112 90.6137 19.1367 90.6137 21.4145H89.6025C89.4677 20.1751 89.1643 18.9525 88.6924 17.7466C88.2542 16.5408 87.5969 15.5359 86.7206 14.732C85.8779 13.9281 84.7656 13.5261 83.3836 13.5261C82.5409 13.5261 81.833 13.7773 81.26 14.2798C80.687 14.7822 80.4005 15.4689 80.4005 16.3398C80.4005 17.3447 80.7039 18.2491 81.3106 19.053C81.9173 19.8234 82.6926 20.5771 83.6364 21.314C84.5802 22.0174 85.524 22.7711 86.4678 23.575C87.5127 24.4124 88.4396 25.2331 89.2486 26.037C90.0576 26.8409 90.698 27.7285 91.1699 28.6999C91.6755 29.6378 91.9283 30.7599 91.9283 32.0663C91.9283 33.5736 91.4564 34.9135 90.5126 36.0858C89.6025 37.2582 88.3722 38.1793 86.8217 38.8493C85.3049 39.4857 83.6027 39.8039 81.7151 39.8039C80.5353 39.8039 79.5073 39.6699 78.6309 39.402C77.7545 39.1675 77.0467 38.8828 76.5074 38.5478C75.968 38.2798 75.4961 38.0789 75.0917 37.9449C74.7209 37.7774 74.3501 37.6937 73.9793 37.6937C73.6423 37.6937 73.3558 37.8779 73.1198 38.2463C72.8839 38.5813 72.6985 38.9833 72.5636 39.4522H71.5524C71.6198 38.3803 71.6704 37.074 71.7041 35.5331C71.7378 33.9923 71.7547 31.9491 71.7547 29.4033H72.7659C72.9681 31.1786 73.3557 32.753 73.9288 34.1263C74.5355 35.4997 75.2939 36.5883 76.204 37.3922C77.1478 38.1626 78.2264 38.5478 79.4399 38.5478C79.9792 38.5478 80.4679 38.4473 80.9061 38.2463C81.3443 38.0454 81.6982 37.7439 81.9679 37.3419C82.2375 36.94 82.3724 36.4208 82.3724 35.7844C82.3724 34.3105 81.9173 33.0712 81.0072 32.0663C80.1308 31.0614 79.0185 29.956 77.6702 28.7502C76.659 27.8123 75.6984 26.9079 74.7883 26.037C73.9119 25.1326 73.1872 24.1612 72.6142 23.1228C72.0412 22.0509 71.7547 20.8618 71.7547 19.5554C71.7547 18.0481 72.1929 16.7585 73.0692 15.6866C73.9793 14.6147 75.1591 13.7941 76.6085 13.2247C78.0579 12.6217 79.6084 12.3203 81.26 12.3203Z" fill="#FFC97A"/>
<path d="M66.4997 12.3203C67.6942 12.3203 68.6232 12.5858 69.2868 13.1168C69.9504 13.6147 70.415 14.2619 70.6804 15.0585C70.9459 15.8219 71.0786 16.5853 71.0786 17.3486C71.0786 18.8422 70.6472 20.0371 69.7845 20.9332C68.955 21.7962 67.8601 22.2277 66.4997 22.2277C65.0398 22.2277 63.9282 21.8958 63.1651 21.232C62.4351 20.5681 62.0701 19.7052 62.0701 18.6431C62.0701 17.5146 62.3024 16.5853 62.7669 15.8551C63.2646 15.1249 63.8784 14.5108 64.6084 14.013C64.0112 14.013 63.4803 14.1291 63.0157 14.3615C62.6176 14.5274 62.236 14.7598 61.871 15.0585C61.506 15.3572 61.1908 15.7057 60.9254 16.104C60.6599 16.4691 60.4443 16.884 60.2784 17.3486C60.1456 17.8133 60.0793 18.2946 60.0793 18.7924V33.7282C60.0793 35.3214 60.4111 36.4001 61.0747 36.9643C61.7383 37.5286 62.8333 37.8107 64.3596 37.8107V38.8562C63.5964 38.823 62.4517 38.7898 60.9254 38.7566C59.4323 38.6903 57.8894 38.6571 56.2967 38.6571C54.8036 38.6571 53.2939 38.6903 51.7676 38.7566C50.2413 38.7898 49.0966 38.823 48.3334 38.8562V37.8107C49.362 37.8107 50.0754 37.5618 50.4736 37.0639C50.9049 36.566 51.1206 35.6201 51.1206 34.2261V18.4439C51.1206 16.9504 50.9215 15.8551 50.5233 15.1581C50.1252 14.4279 49.3952 14.0628 48.3334 14.0628V13.0173C49.3952 13.1168 50.4238 13.1666 51.4192 13.1666C53.0782 13.1666 54.6211 13.1168 56.0479 13.0173C57.5078 12.8845 58.8516 12.7019 60.0793 12.4696V16.0542C60.5106 15.1912 61.0415 14.4942 61.6719 13.9632C62.3024 13.399 63.0158 12.9841 63.8121 12.7185C64.6416 12.453 65.5375 12.3203 66.4997 12.3203Z" fill="#FFC97A"/>
<path d="M13.9663 0C15.2964 0 16.4437 0.165628 17.408 0.496885C18.3724 0.82814 19.2203 1.27533 19.9519 1.83847C20.4174 2.20285 20.8331 2.74942 21.1989 3.47818C21.5979 4.17381 21.7974 5.00195 21.7974 5.96259C21.7974 6.98948 21.415 7.917 20.6502 8.74514C19.8854 9.57327 18.8878 9.98734 17.6574 9.98734C16.294 9.98734 15.1967 9.62296 14.3654 8.8942C13.5673 8.16544 13.1682 7.15511 13.1682 5.86322C13.1682 4.90258 13.4509 4.02475 14.0162 3.22974C14.5815 2.4016 15.4461 1.80534 16.6099 1.44096C16.5102 1.30846 16.3439 1.20908 16.1111 1.14283C15.9116 1.04345 15.629 0.993767 15.2632 0.993767C14.6979 0.993767 14.2323 1.07658 13.8666 1.24221C13.5008 1.40784 13.1849 1.63971 12.9188 1.93784C12.6196 2.30222 12.3868 2.81567 12.2205 3.47818C12.0543 4.14069 11.9711 5.13445 11.9711 6.45948V13.1177H17.3083V14.1115H11.9711V33.7383C11.9711 35.3615 12.3535 36.4546 13.1184 37.0178C13.8832 37.5478 14.9307 37.8128 16.2608 37.8128V38.8562C15.3297 38.8231 14.0328 38.79 12.3702 38.7568C10.7075 38.6906 8.94509 38.6575 7.08292 38.6575C5.75279 38.6575 4.43929 38.6906 3.14242 38.7568C1.84555 38.79 0.864582 38.8231 0.199519 38.8562V37.8128C1.23037 37.8128 1.94531 37.5643 2.34435 37.0674C2.77664 36.5706 2.99278 35.6265 2.99278 34.2352V14.1115H0V13.1177H2.99278C2.99278 11.1633 3.10917 9.54015 3.34194 8.24825C3.57471 6.95636 3.9405 5.86322 4.43929 4.96883C4.97134 4.04131 5.66966 3.21318 6.53424 2.48441C7.29906 1.8219 8.34654 1.24221 9.67666 0.745326C11.0068 0.248442 12.4367 0 13.9663 0Z" fill="#FFC97A"/>
<path d="M33.6439 29.0632C33.6439 28.5398 33.1934 28.4314 32.5107 28.4314C31.828 28.4314 31.2746 28.5398 31.2746 29.0632C31.2746 29.5866 31.828 30.3268 32.5107 30.3268C33.1934 30.3268 33.6439 29.5866 33.6439 29.0632Z" fill="#FFC97A"/>
<path d="M44.5664 33.4698C44.5664 34.9637 44.7648 36.0763 45.1611 36.8067C45.5906 37.5036 46.3171 37.8525 47.3408 37.8526V38.8985C46.3169 38.7989 45.2925 38.7491 44.2686 38.7491C42.6171 38.7491 41.0805 38.7989 39.6602 38.8985C38.2399 38.9981 36.9016 39.1808 35.6465 39.4464V35.8604C34.8537 37.1883 33.7801 38.1515 32.4258 38.7491C31.1046 39.3134 29.5521 39.5957 27.7686 39.5958C26.2493 39.5958 25.0432 39.3963 24.1514 38.9981C23.2926 38.633 22.6314 38.1679 22.169 37.6036C21.6735 37.006 21.3104 36.2088 21.0791 35.213C20.8479 34.2171 20.7315 32.8726 20.7315 31.1798V18.4805C20.7315 16.9869 20.5339 15.8907 20.1377 15.1934C19.7413 14.4631 19.014 14.0978 17.957 14.0977V13.0518C20.5231 13.4177 26.3254 13.9395 30.7471 13.4092L30.669 24.7432C30.6689 24.7725 30.66 26.4722 29.627 27.3477C28.8462 28.0094 26.9402 28.1797 26.918 28.1817C26.9181 31.1739 29.3907 33.079 32.4404 33.0792C35.4903 33.0791 37.9627 31.1739 37.9629 28.1817C37.9282 28.181 35.9649 28.1392 35.1504 27.3477C34.2208 26.4439 34.212 24.7723 34.2119 24.7432L34.292 13.2012H35.9444C37.596 13.2012 39.1324 13.1514 40.5527 13.0518C42.0061 12.919 43.3442 12.7364 44.5664 12.504V33.4698ZM28.377 24.1739C27.9725 24.1739 27.5431 24.3749 27.543 25.1778C27.543 25.7321 28.2496 25.1781 28.71 25.1778C29.1704 25.1778 29.21 25.7323 29.21 25.1778C29.2099 24.6235 28.8372 24.174 28.377 24.1739ZM36.5039 24.1739C36.0438 24.1742 35.671 24.6236 35.6709 25.1778C35.6709 25.7323 35.7105 25.1778 36.1709 25.1778C36.6313 25.1778 37.3379 25.7323 37.3379 25.1778C37.3378 24.3749 36.9084 24.1739 36.5039 24.1739Z" fill="#FFC97A"/>
<path d="M117.203 3.54282C118.365 3.54286 119.229 3.85585 119.793 4.48227C120.358 5.10883 120.64 5.88413 120.64 6.80746C120.64 7.76388 120.374 8.50635 119.843 9.03403C119.345 9.56157 118.731 9.82501 118 9.82504C117.369 9.82504 116.788 9.61102 116.257 9.18246C115.759 8.75373 115.477 8.11025 115.41 7.25278C115.353 6.5126 115.58 5.60064 116.092 4.51645C115.148 4.90983 114.389 5.37609 113.816 5.91684C113.472 6.24131 113.156 6.62873 112.865 7.077C113.024 7.24404 113.175 7.41773 113.318 7.59946C114.247 8.75374 114.712 10.2377 114.712 12.0516C114.712 13.8654 114.247 15.3663 113.318 16.5536C112.388 17.7076 111.11 18.5652 109.483 19.1258C107.889 19.6865 106.062 19.9666 104.003 19.9666C103.534 19.9666 103.077 19.9498 102.63 19.9207C102.383 20.1079 102.126 20.3212 101.861 20.5604C101.496 20.8902 101.314 21.3684 101.314 21.995C101.314 23.0502 101.911 23.5779 103.107 23.578H107.939C110.097 23.578 111.973 23.8087 113.567 24.2704C115.194 24.7321 116.456 25.4904 117.353 26.5457C118.282 27.5681 118.747 28.9205 118.747 30.6024C118.747 32.2514 118.2 33.769 117.104 35.1541C116.041 36.5722 114.38 37.693 112.122 38.5174C109.864 39.3749 106.925 39.8036 103.306 39.8036C101.048 39.8036 99.0882 39.6224 97.4279 39.2596C95.801 38.9298 94.5393 38.4348 93.6427 37.7752C92.7464 37.1488 92.2982 36.3742 92.298 35.451C92.298 34.5276 92.7629 33.6534 93.6926 32.8289C94.6223 32.0374 96.1005 31.4108 98.1261 30.9491L98.6242 31.7401C98.0929 32.3667 97.7268 32.928 97.5275 33.4227C97.3616 33.9501 97.2785 34.4446 97.2785 34.9061C97.2785 36.1923 97.8604 37.1823 99.0226 37.8748C100.218 38.6002 101.878 38.9627 104.003 38.9627C105.497 38.9627 106.743 38.7489 107.739 38.3202C108.769 37.9244 109.532 37.3631 110.03 36.6375C110.562 35.912 110.827 35.0872 110.827 34.1639C110.827 33.2407 110.479 32.4494 109.781 31.7899C109.084 31.1303 107.672 30.8006 105.547 30.8006H102.858C101.33 30.8006 100.052 30.6025 99.0226 30.2069C97.9932 29.8111 97.2121 29.2666 96.6808 28.5741C96.1497 27.8486 95.884 27.0078 95.884 26.0516C95.884 24.5017 96.4983 23.1987 97.7267 22.1434C98.7256 21.2854 99.9565 20.506 101.416 19.8006C100.368 19.6626 99.3872 19.4402 98.4748 19.1258C96.8809 18.5652 95.6184 17.7078 94.6886 16.5536C93.7589 15.3663 93.2941 13.8654 93.2941 12.0516C93.2941 10.2378 93.759 8.75372 94.6886 7.59946C95.6184 6.41219 96.8808 5.53804 98.4748 4.97739C100.102 4.41683 101.944 4.13658 104.003 4.13657C106.062 4.13657 107.889 4.41673 109.483 4.97739C110.463 5.31528 111.317 5.76738 112.044 6.33286C112.46 5.75677 112.95 5.2552 113.517 4.82895C114.646 3.97148 115.875 3.54282 117.203 3.54282ZM98.8478 6.46078C97.3231 7.72555 95.7473 9.68375 95.8449 12.2752C96.0184 16.8802 98.8482 17.4014 99.7218 17.8182C99.391 15.4216 101.31 14.9187 102.184 14.8397C104.915 14.5235 104.911 11.8624 104.567 10.5711L103.137 9.93832C102.629 8.04141 100.649 8.0411 99.7218 8.27817L98.8478 6.46078Z" fill="#FFC97A"/>
<path d="M100.537 11.2333C100.537 10.5865 100.882 10.4248 101.208 10.4248C101.579 10.4248 101.879 10.7868 101.879 11.2333C101.879 11.6799 101.847 11.2333 101.477 11.2333C101.106 11.2333 100.537 11.6799 100.537 11.2333Z" fill="#FFC97A"/>
</svg>
