<svg width="15" height="13" viewBox="0 0 15 13" fill="none" xmlns="http://www.w3.org/2000/svg">
<path d="M13.1097 12.1166V3.83417C13.1097 3.81429 13.1113 3.79482 13.1144 3.77576L10.875 1.86616C10.3988 1.46067 10.0698 1.18119 9.79071 0.998982C9.52119 0.823101 9.34008 0.766834 9.16683 0.766834C8.99372 0.766835 8.81374 0.823306 8.54452 0.998982C8.26536 1.18121 7.93548 1.46044 7.45863 1.86616L5.2177 3.77576C5.22078 3.7949 5.22398 3.81422 5.22398 3.83417V12.1166C5.22364 12.3281 5.04366 12.5 4.82168 12.5C4.59985 12.4998 4.41972 12.328 4.41938 12.1166V4.45573L4.00451 4.81069C3.83888 4.95183 3.58373 4.93709 3.43564 4.77924C3.28813 4.62148 3.30193 4.3796 3.46707 4.23856L6.92118 1.29553H6.92275C7.38366 0.90337 7.75691 0.583679 8.08879 0.366942C8.4307 0.143752 8.77013 2.24995e-07 9.16683 0C9.56348 0 9.90284 0.143743 10.2449 0.366942C10.577 0.583731 10.9518 0.903225 11.4125 1.29553L14.8666 4.23856C15.0317 4.3796 15.0455 4.62148 14.898 4.77924C14.7499 4.93709 14.4948 4.95183 14.3291 4.81069L13.9143 4.45573V12.1166C13.9139 12.328 13.7338 12.4998 13.512 12.5C13.29 12.5 13.11 12.3281 13.1097 12.1166Z" fill="#9D9B98"/>
<path d="M1.82418 6.66737C1.82418 6.37816 1.74192 6.13002 1.62487 5.96249C1.50777 5.79507 1.37173 5.7247 1.25 5.7247C1.12833 5.7248 0.992145 5.79519 0.875132 5.96249C0.758177 6.13002 0.675818 6.37832 0.675818 6.66737C0.675926 6.95653 0.758033 7.20483 0.875132 7.37226C0.992124 7.53946 1.12837 7.60853 1.25 7.60863C1.37164 7.60863 1.50783 7.53939 1.62487 7.37226C1.74197 7.20483 1.82407 6.95653 1.82418 6.66737ZM2.5 6.66737C2.49989 7.09818 2.37897 7.50235 2.16605 7.80679C1.95294 8.11149 1.63215 8.33333 1.25 8.33333C0.868121 8.33323 0.548331 8.11124 0.335269 7.80679C0.12233 7.50234 0.000106589 7.0982 0 6.66737C0 6.23634 0.122237 5.83113 0.335269 5.52654C0.548331 5.22219 0.868196 5.0001 1.25 5C1.63209 5 1.95294 5.22191 2.16605 5.52654C2.37908 5.83113 2.5 6.23634 2.5 6.66737Z" fill="#9D9B98"/>
<path d="M0.833496 12.1094V7.8906C0.833496 7.67488 1.02004 7.5 1.25016 7.5C1.48028 7.5 1.66683 7.67488 1.66683 7.8906V12.1094C1.66665 12.325 1.48017 12.5 1.25016 12.5C1.02015 12.5 0.833672 12.325 0.833496 12.1094Z" fill="#9D9B98"/>
<path d="M10.6579 9.31364C10.6579 8.9734 10.6564 8.75738 10.6348 8.59906C10.6147 8.4523 10.584 8.41411 10.5654 8.39576C10.5468 8.37748 10.5083 8.34577 10.3588 8.32597C10.1978 8.30466 9.97715 8.30473 9.63096 8.30473H8.92167C8.57549 8.30473 8.35488 8.30466 8.19387 8.32597C8.04438 8.34577 8.00583 8.37748 7.98725 8.39576C7.96865 8.41411 7.93793 8.4523 7.91787 8.59906C7.89622 8.75738 7.89474 8.9734 7.89474 9.31364V11.7229H10.6579V9.31364ZM9.98715 5.42972C10.2048 5.42988 10.3816 5.60399 10.3819 5.81811C10.3819 6.03251 10.205 6.20634 9.98715 6.2065H8.56548C8.34762 6.20634 8.17074 6.03251 8.17074 5.81811C8.17108 5.60399 8.34782 5.42988 8.56548 5.42972H9.98715ZM9.98715 3.33301L10.0658 3.34059C10.246 3.37657 10.3819 3.53349 10.3819 3.7214C10.3819 3.90931 10.246 4.06623 10.0658 4.10221L9.98715 4.10979H8.56548C8.34762 4.10963 8.17074 3.9358 8.17074 3.7214C8.17074 3.507 8.34762 3.33317 8.56548 3.33301H9.98715ZM11.4474 11.7229H14.6053C14.8233 11.7229 15 11.8968 15 12.1113C14.9997 12.3255 14.8231 12.4997 14.6053 12.4997H0.394737C0.176935 12.4997 0.000332468 12.3255 0 12.1113C0 11.8968 0.17673 11.7229 0.394737 11.7229H7.10526V9.31364C7.10526 8.99552 7.10427 8.71791 7.13456 8.4959C7.16648 8.26247 7.23958 8.03308 7.42907 7.84655C7.61867 7.66 7.85172 7.58819 8.08902 7.55678C8.31486 7.52691 8.59793 7.52795 8.92167 7.52795H9.63096C9.95471 7.52795 10.2378 7.52691 10.4636 7.55678C10.7009 7.58819 10.934 7.66 11.1236 7.84655C11.313 8.03308 11.3862 8.26247 11.4181 8.4959C11.4484 8.71791 11.4474 8.99552 11.4474 9.31364V11.7229Z" fill="#9D9B98"/>
</svg>
